<svg width="139" height="44" viewBox="0 0 139 44" fill="none" xmlns="http://www.w3.org/2000/svg">
<path d="M8.29032 16.0144H7.32242C6.17854 16.0144 5.21062 15.8385 4.33071 15.4865C3.45079 15.1345 2.65888 14.6066 2.04294 14.0786C1.427 13.5507 0.987037 12.7588 0.635071 11.8788C0.283106 10.9989 0.195114 10.119 0.195114 9.15111C0.195114 8.1832 0.371102 7.2153 0.723068 6.42337C1.07503 5.63145 1.51498 4.83953 2.13092 4.22359C2.74686 3.60765 3.53879 3.16769 4.4187 2.81573C5.29862 2.46376 6.35451 2.28778 7.41041 2.28778H8.37832V0H9.87418V2.19979H10.8421C11.986 2.19979 12.9539 2.37577 13.8338 2.72773C14.7137 3.0797 15.5056 3.60765 16.1216 4.1356C16.7375 4.66355 17.1775 5.45547 17.5294 6.33538C17.8814 7.2153 18.0574 8.09521 18.0574 9.06312C18.0574 10.031 17.8814 10.9989 17.5294 11.7909C17.1775 12.5828 16.7375 13.3747 16.1216 13.9906C15.5056 14.6066 14.8017 15.0465 13.8338 15.3985C12.9539 15.7505 11.898 15.9264 10.8421 15.9264H9.87418V18.1262H8.37832V16.0144H8.29032ZM8.29032 14.7826V3.34367H7.32242C6.44251 3.34367 5.65059 3.51966 4.94666 3.78363C4.24273 4.04761 3.71478 4.39957 3.18683 4.83953C2.65888 5.27949 2.30691 5.80743 2.04294 6.42337C1.77896 7.03931 1.69097 7.65525 1.69097 8.27119V9.76705C1.69097 10.383 1.77896 10.9989 2.04294 11.6149C2.30691 12.2308 2.65888 12.7588 3.18683 13.1987C3.71478 13.6387 4.24273 13.9906 4.94666 14.2546C5.65059 14.5186 6.44251 14.6946 7.32242 14.6946H8.29032V14.7826ZM10.7541 14.7826C11.634 14.7826 12.3379 14.6066 13.0419 14.3426C13.7458 14.0786 14.3617 13.7267 14.8017 13.2867C15.2416 12.8467 15.6816 12.3188 15.9456 11.7029C16.2096 11.0869 16.2975 10.471 16.2975 9.85504V8.35919C16.2975 7.74325 16.2096 7.12731 15.9456 6.51137C15.6816 5.89543 15.3296 5.36748 14.8017 4.92752C14.2737 4.48756 13.7458 4.1356 13.0419 3.87162C12.3379 3.60765 11.546 3.43167 10.7541 3.43167H9.78619V14.8706H10.7541V14.7826Z" fill="black"/>
<path d="M22.897 17.5105V0.616142H29.6724C31.1682 0.616142 32.3121 1.0561 33.104 1.84802C33.8959 2.72794 34.2479 3.87183 34.2479 5.27969C34.2479 6.77554 33.8959 7.91943 33.104 8.71135C32.3121 9.59127 31.1682 9.94323 29.6724 9.94323H24.3929V17.3345H22.897V17.5105ZM24.3929 8.79935H29.6724C30.6403 8.79935 31.4322 8.53537 31.9601 8.00742C32.4881 7.47947 32.7521 6.77554 32.7521 5.98362V4.75174C32.7521 3.95982 32.4881 3.25589 31.9601 2.72794C31.4322 2.19999 30.7283 1.93601 29.6724 1.93601H24.3929V8.79935Z" fill="black"/>
<path d="M45.071 17.7744C42.8712 17.7744 41.1994 17.0705 39.8795 15.5746C38.6476 14.0788 38.0317 11.967 38.0317 9.06326C38.0317 6.15955 38.6476 4.04775 39.8795 2.5519C41.1114 1.05604 42.8712 0.352112 45.071 0.352112C47.2708 0.352112 48.9426 1.05604 50.1745 2.5519C51.4064 4.04775 52.0223 6.15955 52.0223 9.06326C52.0223 11.879 51.4064 14.0788 50.1745 15.5746C48.9426 17.0705 47.2708 17.7744 45.071 17.7744ZM45.071 16.5425C45.8629 16.5425 46.6549 16.3666 47.2708 16.1026C47.9747 15.8386 48.5027 15.3986 48.9426 14.8707C49.3826 14.3427 49.8225 13.6388 50.0865 12.8469C50.3505 12.055 50.4385 11.1751 50.4385 10.1192V8.00737C50.4385 7.03946 50.3505 6.07155 50.0865 5.27963C49.8225 4.48771 49.4706 3.78378 48.9426 3.25583C48.5027 2.72788 47.8867 2.28792 47.2708 2.02395C46.6549 1.75997 45.8629 1.58399 45.071 1.58399C44.2791 1.58399 43.4872 1.75997 42.8712 2.02395C42.1673 2.28792 41.6393 2.72788 41.1114 3.25583C40.5834 3.78378 40.2315 4.48771 39.9675 5.27963C39.7035 6.07155 39.6155 6.95147 39.6155 8.00737V10.1192C39.6155 11.0871 39.7035 12.055 39.9675 12.8469C40.2315 13.6388 40.5834 14.3427 41.1114 14.8707C41.5513 15.3986 42.1673 15.8386 42.8712 16.1026C43.4872 16.3666 44.2791 16.5425 45.071 16.5425Z" fill="black"/>
<path d="M68.1246 9.59127H58.7095V17.5105H57.2137V0.616142H58.7095V8.2714H68.1246V0.616142H69.6205V17.5105H68.1246V9.59127Z" fill="black"/>
<path d="M81.0597 1.93601V17.5105H79.5638V1.93601H73.8444V0.616142H86.7791V1.93601H81.0597Z" fill="black"/>
<path d="M90.9146 17.5105V0.616142H100.946V1.93601H92.4105V8.2714H100.506V9.59127H92.4105V16.1906H100.946V17.5105H90.9146Z" fill="black"/>
<path d="M117.136 9.59127H107.721V17.5105H106.225V0.616142H107.721V8.2714H117.136V0.616142H118.632V17.5105H117.136V9.59127Z" fill="black"/>
<path d="M122.503 16.1906H124.263C125.055 15.1347 125.583 13.7269 126.023 11.967C126.463 10.2072 126.639 8.00742 126.639 5.36768V0.616142H136.318V16.1906H138.606V21.1181H137.198V17.5105H123.911V21.1181H122.503V16.1906ZM134.822 16.1906V1.93601H128.047V5.54366C128.047 8.1834 127.871 10.3832 127.519 12.143C127.167 13.9028 126.639 15.2227 126.023 16.1906V16.2786H134.822V16.1906Z" fill="black"/>
<path d="M13.3059 43.4682L11.458 38.1887H4.15474L2.30693 43.4682H0.811066L6.88248 26.5738H8.73029L14.8017 43.4682H13.3059ZM7.7624 27.9817H7.6744L4.50672 36.9568H11.0181L7.7624 27.9817Z" fill="black"/>
<path d="M19.4654 42.1483H21.8412L22.8091 39.7725L16.3857 26.5738H17.9696L22.2811 35.4609L23.425 37.9247H23.513L24.4809 35.373L28.0886 26.5738H29.5844L23.337 41.9723C23.0731 42.5883 22.8091 42.9402 22.4571 43.2042C22.1052 43.3802 21.6652 43.4682 21.0493 43.4682H19.4654V42.1483Z" fill="black"/>
<path d="M39.3514 27.8937V43.4682H37.8555V27.8937H32.1361V26.5738H45.0709V27.8937H39.3514Z" fill="black"/>
<path d="M54.6619 43.7322C52.5501 43.7322 50.8783 43.0283 49.7344 41.5325C48.5905 40.0366 47.9745 37.9248 47.9745 35.0211C47.9745 32.2054 48.5905 30.0056 49.7344 28.5097C50.8783 27.0139 52.5501 26.2219 54.6619 26.2219C56.0697 26.2219 57.2136 26.5739 58.1815 27.1898C59.1495 27.8058 59.8534 28.6857 60.3813 29.8296L59.1495 30.5335C58.7975 29.6536 58.1815 28.8617 57.4776 28.3337C56.6857 27.8058 55.8058 27.5418 54.7499 27.5418C53.166 27.5418 51.9341 28.0698 50.9662 29.2137C50.0863 30.3575 49.6464 31.9414 49.6464 34.0532V36.077C49.6464 38.1888 50.0863 39.7726 50.9662 40.8285C51.8462 41.8844 53.078 42.5004 54.7499 42.5004C55.8938 42.5004 56.8617 42.2364 57.6536 41.6204C58.4455 41.0925 58.9735 40.3006 59.4134 39.3327L60.6453 40.0366C60.1173 41.1805 59.4134 42.1484 58.4455 42.7643C57.2136 43.3803 56.0697 43.7322 54.6619 43.7322Z" fill="black"/>
<path d="M71.0281 43.7323C68.8283 43.7323 67.1564 43.0284 65.8366 41.5325C64.6047 40.0367 63.9888 37.9249 63.9888 35.0212C63.9888 32.1174 64.6047 30.0057 65.8366 28.5098C67.0684 27.0139 68.8283 26.31 71.0281 26.31C73.2279 26.31 74.8997 27.0139 76.1316 28.5098C77.3634 30.0057 77.9794 32.1174 77.9794 35.0212C77.9794 37.8369 77.3634 40.0367 76.1316 41.5325C74.8997 43.0284 73.2279 43.7323 71.0281 43.7323ZM71.0281 42.5004C71.82 42.5004 72.6119 42.3245 73.2279 42.0605C73.9318 41.7965 74.4597 41.3565 74.8997 40.8286C75.3396 40.3007 75.7796 39.5967 76.0436 38.8048C76.3075 38.0129 76.3955 37.133 76.3955 36.0771V33.9653C76.3955 32.9974 76.3075 32.0295 76.0436 31.2375C75.7796 30.4456 75.4276 29.7417 74.8997 29.2137C74.4597 28.6858 73.8438 28.2458 73.2279 27.9818C72.6119 27.7179 71.82 27.5419 71.0281 27.5419C70.2361 27.5419 69.4442 27.7179 68.8283 27.9818C68.1244 28.2458 67.5964 28.6858 67.0685 29.2137C66.5405 29.7417 66.1885 30.4456 65.9245 31.2375C65.6606 32.0295 65.5726 32.9094 65.5726 33.9653V36.0771C65.5726 37.045 65.6606 38.0129 65.9245 38.8048C66.1885 39.5967 66.5405 40.3007 67.0685 40.8286C67.5084 41.3565 68.1244 41.7965 68.8283 42.0605C69.4442 42.3245 70.2361 42.5004 71.0281 42.5004Z" fill="black"/>
<path d="M83.2592 43.4682V26.5738H90.0346C91.5304 26.5738 92.6743 27.0138 93.4662 27.8057C94.2582 28.6856 94.6101 29.8295 94.6101 31.2374C94.6101 32.7332 94.2582 33.8771 93.4662 34.669C92.6743 35.5489 91.5304 35.9009 90.0346 35.9009H84.7551V43.2922H83.2592V43.4682ZM84.7551 34.757H90.0346C91.0025 34.757 91.7944 34.493 92.3223 33.9651C92.8503 33.4371 93.1143 32.7332 93.1143 31.9413V30.7974C93.1143 30.0055 92.8503 29.3015 92.3223 28.7736C91.7944 28.2457 91.0905 27.9817 90.0346 27.9817H84.7551V34.757Z" fill="black"/>
<path d="M105.081 43.7322C102.969 43.7322 101.297 43.0283 100.153 41.5325C99.0094 40.0366 98.3934 37.9248 98.3934 35.0211C98.3934 32.2054 99.0094 30.0056 100.153 28.5097C101.297 27.0139 102.969 26.2219 105.081 26.2219C106.489 26.2219 107.633 26.5739 108.6 27.1898C109.568 27.8058 110.272 28.6857 110.8 29.8296L109.568 30.5335C109.216 29.6536 108.6 28.8617 107.897 28.3337C107.105 27.8058 106.225 27.5418 105.169 27.5418C103.585 27.5418 102.353 28.0698 101.385 29.2137C100.505 30.3575 100.065 31.9414 100.065 34.0532V36.077C100.065 38.1888 100.505 39.7726 101.385 40.8285C102.265 41.8844 103.497 42.5004 105.169 42.5004C106.313 42.5004 107.281 42.2364 108.072 41.6204C108.864 41.0925 109.392 40.3006 109.832 39.3327L111.064 40.0366C110.536 41.1805 109.832 42.1484 108.864 42.7643C107.633 43.3803 106.401 43.7322 105.081 43.7322Z" fill="black"/>
</svg>
