<svg width="34" height="44" viewBox="0 0 34 44" fill="none" xmlns="http://www.w3.org/2000/svg">
<path d="M17.2548 42.6948L1.21173 32.1985V1.20397H33.3845V32.1977L17.2548 42.6948Z" fill="#2C39F2" stroke="#2C39F2"/>
<path d="M26.8453 24.9895C27.1972 24.9895 27.5492 24.9895 27.9012 24.8135V28.3331C27.0212 28.5971 25.8773 28.8611 24.8215 28.8611C22.8856 28.8611 21.3898 28.1572 20.5979 26.7493C18.662 28.1572 16.4623 29.0371 13.5585 28.9491C9.9509 28.9491 6.78321 26.8373 6.87121 23.1417C6.9592 18.3901 11.5347 16.9823 15.4064 16.9823C16.9022 16.9823 18.6621 17.2462 19.9819 17.5102V16.8063C19.9819 14.9585 18.4861 13.6386 15.4064 13.6386C12.7666 13.6386 10.3909 14.2545 8.54304 14.9585V10.2949C10.1269 9.76696 13.1186 9.06303 16.0223 9.15102C21.8297 9.23901 25.5254 11.5268 25.4374 17.6862L25.3494 23.6696C25.5254 24.7255 26.1413 24.9895 26.8453 24.9895ZM11.7987 22.8777C11.7987 24.3735 13.2066 25.4294 15.1424 25.4294C16.9022 25.4294 18.4861 24.9895 19.9819 23.8456V20.6779C19.014 20.4139 17.6061 20.1499 16.3743 20.1499C13.9985 20.1499 11.7987 20.8539 11.7987 22.8777Z" fill="white"/>
</svg>
