<svg width="154" height="44" viewBox="0 0 154 44" fill="none" xmlns="http://www.w3.org/2000/svg">
<path d="M68.8091 0.704239L56.0504 22.4381L54.1145 26.5737L54.5545 22.8781L54.4665 0.704239H44.6995V43.4681H44.7875H53.6746L66.5213 21.2942L68.2812 17.4226L67.9292 20.8543L68.0172 43.4681H77.7842L77.6963 0.704239H68.8091Z" fill="black"/>
<path d="M19.5341 0.703987H14.7826L0 43.4678H9.85504L19.2701 12.9348L28.6852 43.4678H38.9802L24.1976 0.703987H19.5341Z" fill="black"/>
<path d="M116.149 0.704239H88.4314V10.4713V43.4681H98.1984V10.4713H116.149V0.704239Z" fill="black"/>
<path d="M143.514 43.4681H153.809L139.026 0.704239H134.275H129.523L114.741 43.3801H124.596L127.06 35.2849H140.962L143.514 43.4681ZM129.699 27.3656L134.187 12.935L138.586 27.3656H129.699Z" fill="black"/>
</svg>
